<!-- Generated by IcoMoon.io -->
<svg version="1.1" xmlns="http://www.w3.org/2000/svg" width="86" height="32" viewBox="0 0 86 32">
<path d="M13.976 0c-0.17 0-0.349 0-0.517 0.020-1.954 0.163-3.749 0.993-5.028 2.505-1.391 1.645-1.728 3.379-1.712 5.474l-3.722-0.006c-0.167-0-0.339-0.005-0.514-0.010-0.486-0.013-0.99-0.027-1.445 0.056-0.274 0.050-0.514 0.184-0.707 0.385-0.338 0.352-0.346 0.796-0.324 1.251 0.035 0.718 0.096 1.436 0.158 2.154 0.034 0.39 0.067 0.781 0.096 1.171l0.618 7.983 0.301 3.855c0.015 0.19 0.027 0.383 0.038 0.576 0.042 0.69 0.086 1.39 0.268 2.050 0.315 1.122 0.938 2.133 1.8 2.919 0.753 0.684 1.663 1.171 2.649 1.42 0.834 0.201 1.804 0.178 2.714 0.157 0.271-0.006 0.537-0.013 0.792-0.013l9.387 0.001c0.239 0 0.485 0.006 0.734 0.012 0.808 0.019 1.651 0.039 2.406-0.137 1.063-0.247 2.138-0.831 2.914-1.6 0.722-0.716 1.299-1.672 1.551-2.66 0.193-0.756 0.241-1.585 0.288-2.389 0.015-0.259 0.030-0.516 0.050-0.767l0.411-5.287 0.512-6.492c0.025-0.321 0.057-0.645 0.089-0.969 0.070-0.704 0.14-1.413 0.138-2.109-0.001-0.428-0.091-0.827-0.398-1.145-0.211-0.219-0.556-0.326-0.848-0.373-0.437-0.071-0.917-0.059-1.381-0.046-0.172 0.005-0.341 0.009-0.505 0.009-1.171-0.002-2.342 0.002-3.512 0.012l-0.050 0.001c0.027-2.243-0.472-4.168-2.085-5.809-1.348-1.396-3.202-2.188-5.142-2.197l-0.025 0zM21.070 12.796l0.063 0.004c0.002 0.004 0.003 0.008 0.005 0.012 0.001 0.002 0.002 0.004 0.002 0.006 0.003 0.007 0.005 0.012 0.007 0.018l0.003 0.006c0.012 0.026 0.014 0.031 0.013 0.073-0.020 2.751-0.756 6.292-2.709 8.307-1.808 1.866-4.615 2.781-7.175 2.832 1.192-2.243 3.109-4.37 5.085-5.95 0.306-0.244 0.626-0.465 0.946-0.686 0.206-0.142 0.412-0.284 0.615-0.433 0.197-0.144 0.461-0.34 0.489-0.603 0.026-0.242-0.103-0.43-0.255-0.604-0.213-0.123-0.368-0.175-0.611-0.103-0.345 0.101-0.692 0.356-1.005 0.586-0.083 0.061-0.164 0.12-0.241 0.174-2.534 1.795-4.64 4.128-6.167 6.832-0.052-2.2 0.45-4.043 1.799-5.813 2.025-2.656 5.901-4.217 9.136-4.658zM1.396 9.371l25.146-0c-0.089 0.847-0.147 1.701-0.205 2.555-0.032 0.475-0.064 0.951-0.102 1.424l-0.677 8.485-0.253 3.127c-0.011 0.136-0.022 0.272-0.032 0.409-0.041 0.539-0.082 1.084-0.186 1.612-0.107 0.542-0.314 1.013-0.595 1.486-0.108 0.165-0.226 0.323-0.352 0.474-0.729 0.871-1.926 1.52-3.062 1.606-0.619 0.047-1.256 0.035-1.887 0.023-0.273-0.005-0.545-0.010-0.814-0.010l-9.368 0c-0.2 0-0.404 0.004-0.609 0.009-0.63 0.013-1.274 0.026-1.879-0.078-0.794-0.139-1.535-0.488-2.147-1.012-0.733-0.618-1.258-1.445-1.506-2.371-0.17-0.614-0.212-1.267-0.254-1.909-0.010-0.161-0.021-0.322-0.033-0.481l-0.247-3.181-0.937-12.166zM21.629 11.322l-0.019 0.002c-3.817 0.442-8.162 2.012-10.63 5.104-1.586 1.987-2.452 4.572-2.166 7.117 0.063 0.559 0.189 1.093 0.372 1.625-0.021 0.053-0.046 0.116-0.075 0.188-0.313 0.787-1.041 2.617-0.788 3.159 0.073 0.156 0.222 0.261 0.384 0.313 0.067 0.021 0.134 0.033 0.203 0.041 0.214-0.035 0.412-0.079 0.54-0.271 0.138-0.206 0.28-0.7 0.401-1.123 0.058-0.201 0.111-0.387 0.157-0.517 0.157-0.445 0.335-0.884 0.513-1.321l0.002-0.005c0.021-0.051 0.042-0.102 0.062-0.154 3.148 0.009 6.509-0.976 8.786-3.223 2.547-2.513 3.188-6.565 3.193-9.995 0-0.27-0.018-0.591-0.216-0.798-0.122-0.127-0.305-0.166-0.475-0.162-0.082 0.002-0.164 0.011-0.246 0.019zM13.67 1.375c0.122-0.008 0.244-0.014 0.366-0.014 1.495 0.010 2.992 0.679 4.043 1.733 1.43 1.435 1.723 2.957 1.726 4.905l-11.642 0.005c-0.047-1.674 0.222-3.203 1.321-4.524 1.055-1.27 2.561-1.959 4.186-2.104z"></path>
<path d="M21.134 12.799l-0.063-0.004c-3.235 0.441-7.111 2.002-9.136 4.658-1.349 1.77-1.85 3.613-1.799 5.813 1.527-2.704 3.633-5.037 6.167-6.832 0.078-0.054 0.158-0.113 0.241-0.174 0.313-0.23 0.661-0.485 1.005-0.586 0.243-0.071 0.398-0.020 0.611 0.103 0.152 0.173 0.281 0.361 0.255 0.604-0.028 0.263-0.293 0.459-0.489 0.603-0.203 0.149-0.409 0.291-0.615 0.433-0.32 0.221-0.64 0.441-0.946 0.686-1.977 1.58-3.893 3.707-5.085 5.95 2.56-0.051 5.368-0.966 7.175-2.832 1.952-2.015 2.689-5.556 2.709-8.307 0.001-0.042-0.002-0.047-0.013-0.073-0.003-0.006-0.006-0.014-0.010-0.024-0.002-0.005-0.005-0.011-0.007-0.018zM21.61 11.323l0.019-0.002c0.082-0.009 0.164-0.017 0.246-0.019 0.17-0.004 0.353 0.035 0.475 0.162 0.198 0.207 0.216 0.528 0.216 0.798-0.005 3.429-0.646 7.482-3.193 9.995-2.277 2.247-5.639 3.232-8.786 3.223-0.021 0.051-0.042 0.102-0.062 0.154l-0.002 0.005c-0.178 0.438-0.356 0.876-0.513 1.321-0.046 0.13-0.099 0.315-0.157 0.517-0.121 0.423-0.263 0.917-0.401 1.123-0.129 0.191-0.326 0.235-0.54 0.271-0.069-0.008-0.137-0.020-0.203-0.041-0.162-0.052-0.311-0.156-0.384-0.313-0.253-0.541 0.475-2.371 0.788-3.159 0.029-0.072 0.054-0.135 0.075-0.188-0.182-0.532-0.309-1.066-0.372-1.625-0.286-2.545 0.58-5.13 2.166-7.117 2.467-3.092 6.813-4.662 10.63-5.104z"></path>
<path d="M21.629 11.321l-0.019 0.002c-3.817 0.442-8.162 2.012-10.63 5.104-1.586 1.987-2.452 4.572-2.166 7.117 0.063 0.559 0.189 1.093 0.372 1.625-0.021 0.053-0.046 0.116-0.075 0.188-0.313 0.787-1.041 2.617-0.788 3.159 0.073 0.156 0.222 0.261 0.384 0.313 0.067 0.021 0.134 0.033 0.203 0.041 0.214-0.035 0.412-0.079 0.54-0.271 0.138-0.206 0.28-0.7 0.401-1.122 0.058-0.201 0.111-0.387 0.157-0.517 0.157-0.446 0.335-0.884 0.513-1.321 0.001-0.002 0.001-0.003 0.002-0.005 0.021-0.051 0.042-0.102 0.062-0.154 3.148 0.009 6.509-0.976 8.786-3.223 2.546-2.513 3.188-6.565 3.193-9.995 0-0.27-0.018-0.591-0.216-0.798-0.122-0.127-0.305-0.166-0.475-0.162-0.082 0.002-0.164 0.011-0.246 0.019zM21.071 12.796l0.063 0.004c0.003 0.007 0.005 0.012 0.007 0.018 0.004 0.010 0.007 0.017 0.010 0.024 0.012 0.026 0.014 0.031 0.013 0.073-0.020 2.751-0.756 6.292-2.709 8.307-1.808 1.866-4.615 2.781-7.175 2.832 1.192-2.243 3.109-4.37 5.085-5.95 0.306-0.244 0.626-0.465 0.946-0.686 0.206-0.142 0.412-0.284 0.615-0.433 0.197-0.144 0.461-0.34 0.489-0.603 0.026-0.242-0.103-0.43-0.255-0.604-0.213-0.123-0.368-0.175-0.611-0.103-0.345 0.101-0.692 0.356-1.005 0.586-0.083 0.061-0.164 0.12-0.241 0.174-2.534 1.795-4.64 4.128-6.167 6.832-0.052-2.2 0.45-4.043 1.799-5.813 2.025-2.656 5.901-4.217 9.136-4.658z"></path>
<path d="M70.777 20.643c-0.095-2.704-2.364-4.818-5.068-4.723s-4.819 2.364-4.724 5.068c0.095 2.704 2.365 4.819 5.069 4.723s4.818-2.365 4.722-5.068zM65.88 17.39c0.789 0.032 1.428 0.222 2.029 0.754 0.716 0.634 1.116 1.55 1.168 2.499s-0.246 1.912-0.892 2.62c-0.591 0.647-1.328 0.936-2.191 0.979-0.788-0.008-1.438-0.131-2.059-0.648-0.726-0.604-1.136-1.498-1.213-2.431-0.080-0.97 0.174-1.973 0.818-2.717 0.639-0.738 1.393-0.992 2.341-1.056z"></path>
<path d="M57.163 20.238c-0.322-2.689-2.765-4.605-5.453-4.278-2.681 0.327-4.591 2.762-4.27 5.443s2.753 4.596 5.435 4.28c2.689-0.317 4.61-2.757 4.288-5.445zM51.867 17.43c0.784-0.064 1.495 0.019 2.157 0.474 0.744 0.511 1.211 1.301 1.366 2.184 0.176 1.002 0.010 2.074-0.592 2.908-0.528 0.731-1.187 1.094-2.066 1.234-0.803 0.041-1.511-0.008-2.187-0.486-0.729-0.514-1.22-1.299-1.362-2.179-0.164-0.971 0.032-2.088 0.612-2.896 0.509-0.71 1.221-1.103 2.073-1.239z"></path>
<path d="M81.047 15.914c-0.024 0.001-0.048 0.003-0.072 0.006-1.233 0.146-2.344 0.742-3.119 1.721-0.884 1.117-1.188 2.534-1.014 3.935 0.143 1.23 0.773 2.353 1.748 3.117 1.156 0.898 2.621 1.126 4.049 0.931 0.826-0.113 2.068-0.509 2.596-1.196 0.149-0.193 0.223-0.429 0.189-0.672-0.024-0.171-0.099-0.335-0.24-0.44-0.162-0.12-0.378-0.136-0.57-0.098-0.267 0.052-0.507 0.217-0.734 0.374-0.048 0.033-0.095 0.066-0.142 0.097-0.997 0.518-2.103 0.762-3.201 0.406-0.78-0.257-1.425-0.817-1.788-1.555-0.189-0.377-0.284-0.777-0.367-1.188h4.707c0.196 0 0.406 0.007 0.622 0.014 0.558 0.018 1.156 0.037 1.648-0.051 0.14-0.025 0.274-0.1 0.376-0.2 0.232-0.225 0.272-0.545 0.266-0.853-0.026-1.179-0.58-2.342-1.438-3.14-0.99-0.921-2.185-1.268-3.517-1.208zM81.192 17.388c0.714-0.084 1.435 0.098 2.023 0.513 0.704 0.5 1.073 1.21 1.221 2.046-0.597 0.007-1.194 0.006-1.791 0.004-0.298-0.001-0.597-0.002-0.895-0.001l-3.31 0.004c0.151-0.509 0.327-0.972 0.653-1.398 0.525-0.687 1.251-1.056 2.099-1.167z"></path>
<path d="M54.835 12.414c1.766-0.042 3.542-0.003 5.31-0.006 1.007-0.002 2.293-0.083 3.27 0.017 0.157 0.016 0.283 0.061 0.402 0.165 0.17 0.149 0.283 0.373 0.289 0.6 0.005 0.205-0.12 0.441-0.269 0.578-0.113 0.105-0.248 0.146-0.397 0.171-0.407 0.066-0.856 0.027-1.269 0.027l-2.193-0.004-0.001 8.14c0.003 0.686 0.090 2.182-0.013 2.765-0.032 0.183-0.099 0.366-0.225 0.506-0.136 0.151-0.323 0.227-0.524 0.231-0.211 0.005-0.416-0.041-0.568-0.195-0.179-0.179-0.244-0.443-0.266-0.688-0.041-0.452-0.004-0.93 0.002-1.384 0.008-0.672 0.002-1.344 0.002-2.015l0.005-7.362c-0.729 0.003-3.255 0.12-3.771-0.115-0.189-0.085-0.308-0.218-0.376-0.414-0.073-0.209-0.040-0.432 0.066-0.624 0.124-0.225 0.289-0.321 0.527-0.394z"></path>
<path d="M43.279 15.921c0.656-0.037 1.297 0.005 1.935 0.175 0.673 0.18 1.702 0.577 2.050 1.215 0.096 0.176 0.145 0.386 0.078 0.581-0.069 0.198-0.257 0.35-0.447 0.428-0.553 0.227-1.246-0.536-1.766-0.732-0.847-0.319-1.865-0.301-2.688 0.083-0.757 0.353-1.301 1.022-1.582 1.799-0.327 0.902-0.355 2.078 0.060 2.957 0.385 0.815 1.093 1.384 1.933 1.681 0.961 0.34 1.963 0.159 2.861-0.272 0.279-0.151 0.531-0.352 0.848-0.417 0.164-0.034 0.325-0.016 0.465 0.081 0.172 0.119 0.311 0.355 0.334 0.563 0.022 0.195-0.054 0.375-0.176 0.525-0.526 0.651-1.695 0.979-2.491 1.076-1.381 0.169-2.82-0.108-3.926-0.989-1.039-0.812-1.7-2.015-1.83-3.327-0.137-1.308 0.247-2.617 1.068-3.644 0.832-1.023 1.968-1.643 3.275-1.782z"></path>
<path d="M72.786 13.449c0.028-0.001 0.055-0.003 0.082-0.003 0.245-0.008 0.491 0.058 0.664 0.238 0.413 0.431 0.249 1.885 0.244 2.48 0.562 0.003 1.93-0.171 2.352 0.203 0.152 0.136 0.215 0.324 0.215 0.525 0.001 0.195-0.050 0.381-0.195 0.519-0.394 0.373-1.816 0.226-2.374 0.223 0.005 1.195-0.156 4.88 0.212 5.788 0.596 1.467 1.887 0.177 2.623 0.523 0.158 0.074 0.287 0.231 0.345 0.394 0.083 0.232 0.009 0.44-0.086 0.653-0.016 0.018-0.033 0.036-0.049 0.054-0.445 0.463-1.281 0.575-1.894 0.584-0.712 0.010-1.385-0.111-1.911-0.637-0.38-0.381-0.617-0.904-0.732-1.424-0.179-0.803-0.105-1.693-0.105-2.512l0.002-3.422c-0.432-0-0.864-0.003-1.296-0.010-0.071-0.044-0.141-0.090-0.203-0.147-0.17-0.154-0.248-0.383-0.254-0.609-0.005-0.189 0.053-0.376 0.194-0.507 0.349-0.323 1.117-0.207 1.56-0.2-0.001-0.622-0.138-1.738 0.097-2.286 0.105-0.243 0.275-0.331 0.509-0.428z"></path>
<path d="M38.52 13.216c-0.744-0.073-4.387-0.047-5.65-0.029-0.233 0.003-0.448 0.019-0.637 0.033-0.161 0.012-0.303 0.022-0.42 0.023 0 0-0.503 0.118-0.666 0.345-0.107 0.148-0.143 0.337-0.169 0.514-0.135 0.941-0.214 1.901-0.293 2.858-0.041 0.504-0.083 1.006-0.132 1.505l-0.479 4.837c-0.013 0.129-0.035 0.306-0.060 0.506-0.081 0.648-0.194 1.545-0.121 1.902 0.040 0.198 0.145 0.361 0.32 0.465 0.173 0.102 0.368 0.16 0.565 0.193h0.002c0.406-0.001 1.019 0.006 1.704 0.013 1.419 0.015 5.029 0.033 5.869-0.004 0.167-0.007 0.345-0.022 0.502-0.081 0.212-0.080 0.386-0.234 0.47-0.447 0.084-0.215 0.066-0.455-0.030-0.663-0.096-0.209-0.226-0.32-0.444-0.39h-7.256c0.121-1.068 0.229-2.138 0.325-3.209l0.086-0.87 0.009-0.086c0.056 0.001 0.131 0.002 0.22 0.003 0.739 0.011 4.336 0.037 4.794-0.031 0.168-0.025 0.325-0.067 0.448-0.191 0.159-0.161 0.225-0.383 0.212-0.606-0.011-0.189-0.095-0.395-0.239-0.523-0.096-0.085-0.215-0.14-0.342-0.157-0.428-0.062-3.626-0.045-4.434-0.035-0.216 0.003-0.396 0.005-0.513 0.005l0.368-4.339h3.916c0.2 0 0.407 0.007 0.618 0.014 0.511 0.016 1.041 0.033 1.516-0.040 0.169-0.026 0.314-0.084 0.437-0.207 0.15-0.151 0.232-0.379 0.221-0.59-0.012-0.216-0.128-0.422-0.297-0.554-0.129-0.101-0.259-0.146-0.42-0.162z"></path>
</svg>
